:SAMPLES-PER-SECOND 30
:FULLY-SPECIFIED
:DEGREES
1449
root  -61.082 37.8528 11.8119 173.493 -53.5741 175.756
RightUpLeg  -21.543 -26.2422 -7.12306
RightLeg  18.9934 -3.10138 -1.40576
RightFoot  -3.40935 -0.456492 6.22819
RightToes  7.56698e-010 0 -3.6325e-017
Spine  47.5902 -0.281139 -22.3102
Spine1  -22.6731 -9.29436 11.5571
HEad  -51.0898 44.0041 -44.6708
LeftShoulder1  0.55744 -0.136889 -7.75879
LeftArm  -26.7518 -63.7743 -34.5007
LeftForeArm  -11.6553 -63.5765 -24.8569
LeftHand  -0.48246 8.7109 -14.2946
RightShoulder  -10.2083 -67.2244 6.04652
RightArm  36.6375 39.8194 116.103
RightForeArm  5.13382 76.9742 71.9139
RightHand  -1.14969 14.3412 -7.1721
LeftUpLeg  -13.8326 16.7557 1.16015
LeftLeg  38.3079 2.81583 2.76804
LeftFoot  -14.1307 0.132394 1.95371
LeftToes  -2.88401e-009 5.30678e-011 -1.08654e-010
1450
root  -61.0507 37.8695 12.3208 173.56 -49.7063 175.956
RightUpLeg  -23.0237 -29.6308 -6.22885
RightLeg  21.8423 -5.53763 -2.65687
RightFoot  -3.82899 -0.239136 3.24537
RightToes  7.56698e-010 0 -3.6325e-017
Spine  47.6084 -0.66156 -22.2794
Spine1  -22.7119 -9.69111 11.1583
HEad  -54.988 44.8349 -46.7401
LeftShoulder1  0.474768 0.26015 -6.97978
LeftArm  -27.7588 -63.8691 -34.5946
LeftForeArm  -10.916 -63.6594 -24.8917
LeftHand  -0.484944 8.52969 -15.1973
RightShoulder  -10.865 -66.5711 7.27548
RightArm  36.4254 40.5116 115.913
RightForeArm  8.01542 77.131 74.0861
RightHand  -1.33817 14.1146 -8.368
LeftUpLeg  -14.2268 18.9329 0.935091
LeftLeg  38.2148 4.2591 3.97594
LeftFoot  -13.942 0.12964 2.02229
LeftToes  -2.88401e-009 5.30678e-011 -1.08654e-010
1451
root  -61.0289 37.8 12.7002 173.615 -46.0563 175.963
RightUpLeg  -24.094 -30.6727 -6.58474
RightLeg  26.1438 -6.20792 -3.51275
RightFoot  -5.05228 -0.176737 2.60124
RightToes  7.56698e-010 0 -3.6325e-017
Spine  47.9786 -0.360081 -23.0169
Spine1  -23.0171 -9.72664 11.9813
HEad  -58.2856 44.9007 -48.3475
LeftShoulder1  0.350249 1.04343 -6.55006
LeftArm  -28.3518 -64.2325 -35.0206
LeftForeArm  -10.6458 -64.0227 -25.3201
LeftHand  -0.506603 8.99077 -13.8923
RightShoulder  -12.484 -65.284 10.3042
RightArm  36.8713 42.4582 114.917
RightForeArm  8.38994 77.1552 74.5559
RightHand  -1.32841 13.2732 -8.65166
LeftUpLeg  -14.6863 20.7808 0.811003
LeftLeg  38.8173 5.68647 5.27436
LeftFoot  -14.0816 0.130701 1.92815
LeftToes  -2.88401e-009 5.30678e-011 -1.08654e-010
1452
root  -61.0096 37.6903 13.0337 173.272 -42.4834 175.755
RightUpLeg  -24.4 -30.218 -8.23587
RightLeg  31.2262 -5.15907 -3.59439
RightFoot  -6.37229 -0.136321 2.1363
RightToes  7.56698e-010 0 -3.6325e-017
Spine  47.671 0.23847 -24.67
Spine1  -21.7054 -9.95265 13.6466
HEad  -61.9816 42.9233 -47.7977
LeftShoulder1  0.236082 1.88351 -6.94338
LeftArm  -30.4368 -64.6161 -33.6832
LeftForeArm  -10.066 -64.2079 -25.5019
LeftHand  -0.492736 9.06308 -13.2301
RightShoulder  -15.0767 -63.2171 15.3648
RightArm  38.9022 45.0254 114.747
RightForeArm  4.00133 76.8833 70.6582
RightHand  -1.25161 13.312 -8.16663
LeftUpLeg  -14.5869 22.7826 0.872683
LeftLeg  39.6861 6.90049 6.49229
LeftFoot  -14.3675 0.13575 1.8757
LeftToes  -2.88401e-009 5.30678e-011 -1.08654e-010
1453
root  -60.9659 37.5736 13.2944 173.215 -39.3653 175.685
RightUpLeg  -24.8515 -29.9531 -9.91668
RightLeg  36.3471 -4.55849 -3.86529
RightFoot  -7.61767 -0.0896378 1.14946
RightToes  7.56698e-010 0 -3.6325e-017
Spine  47.3565 0.368614 -25.393
Spine1  -20.7855 -10.205 14.4001
HEad  -66.2987 43.502 -51.8163
LeftShoulder1  0.18769 2.26388 -7.53107
LeftArm  -31.159 -64.8962 -33.0433
LeftForeArm  -9.72587 -64.2569 -25.5328
LeftHand  -0.466644 8.59102 -14.2771
RightShoulder  -15.7588 -62.4017 16.9111
RightArm  39.7512 46.1549 114.463
RightForeArm  4.62535 76.8535 70.0718
RightHand  -1.04661 14.0531 -6.67013
LeftUpLeg  -15.0259 24.6482 0.974132
LeftLeg  40.6683 7.81061 7.52778
LeftFoot  -14.5713 0.135961 1.71708
LeftToes  -2.88401e-009 5.30678e-011 -1.08654e-010
1454
root  -60.8991 37.4818 13.4788 173.259 -36.3994 175.682
RightUpLeg  -24.9421 -30.1339 -11.39
RightLeg  40.623 -5.56985 -5.38622
RightFoot  -8.73128 -0.0583155 0.000640308
RightToes  7.56698e-010 0 -3.6325e-017
Spine  48.1519 0.35643 -25.5587
Spine1  -21.9997 -10.275 14.67
HEad  -68.6702 44.672 -53.7921
LeftShoulder1  0.219775 2.02783 -7.2911
LeftArm  -30.8617 -64.0694 -33.574
LeftForeArm  -9.75519 -64.3766 -25.6914
LeftHand  -0.513903 8.86834 -14.5967
RightShoulder  -15.4046 -61.7069 16.729
RightArm  39.5948 46.2165 113.164
RightForeArm  2.64275 76.6948 68.2301
RightHand  -0.951265 15.0341 -5.80923
LeftUpLeg  -15.4776 26.5415 1.23963
LeftLeg  41.481 8.52977 8.39786
LeftFoot  -14.6908 0.138468 1.72318
LeftToes  -2.88401e-009 5.30678e-011 -1.08654e-010
1455
root  -60.8399 37.3945 13.6506 173.196 -33.2733 175.644
RightUpLeg  -24.6922 -30.5829 -12.7369
RightLeg  43.9226 -7.13356 -7.58722
RightFoot  -9.53258 -0.0497759 -0.995427
RightToes  7.56698e-010 0 -3.6325e-017
Spine  48.4495 0.484641 -25.7404
Spine1  -22.2202 -10.2975 15.1452
HEad  -70.6498 46.2606 -56.4543
LeftShoulder1  0.169311 2.42001 -8.03306
LeftArm  -29.0625 -64.1077 -34.9148
LeftForeArm  -9.92736 -64.3423 -25.6634
LeftHand  -0.582999 9.2205 -15.225
RightShoulder  -16.6044 -59.8019 19.8266
RightArm  40.0941 47.6744 111.033
RightForeArm  2.74862 76.7035 68.347
RightHand  -1.161 14.1182 -7.44503
LeftUpLeg  -15.6427 28.6842 1.6555
LeftLeg  42.1953 9.08414 9.12057
LeftFoot  -14.9106 0.129986 1.29788
LeftToes  -2.88401e-009 5.30678e-011 -1.08654e-010
